<?xml version="1.0" standalone="no"?>
<!DOCTYPE svg PUBLIC "-//W3C//DTD SVG 20010904//EN"
 "http://www.w3.org/TR/2001/REC-SVG-20010904/DTD/svg10.dtd">
<svg version="1.0" xmlns="http://www.w3.org/2000/svg"
 width="1000.000000pt" height="1000.000000pt" viewBox="0 0 1000.000000 1000.000000"
 preserveAspectRatio="xMidYMid meet">
<metadata>
Created by potrace 1.16, written by Peter Selinger 2001-2019
</metadata>
<g transform="translate(0.000000,1000.000000) scale(0.100000,-0.100000)"
fill="#DDA74F" stroke="none">
<path d="M0 6303 c0 -2033 2 -3694 4 -3692 5 4 315 652 816 1699 180 377 504
1054 720 1505 216 451 477 996 579 1210 l187 390 297 0 297 0 118 -245 c65
-135 196 -408 292 -608 l173 -363 41 67 c252 416 680 774 1146 958 716 282
1662 252 2403 -77 l57 -26 0 -158 0 -158 305 305 305 305 1130 -1130 1130
-1130 0 2423 0 2422 -5000 0 -5000 0 0 -3697z"/>
<path d="M6806 6481 l-319 -319 57 -16 c179 -52 381 -163 554 -302 l32 -27 0
492 c0 270 -1 491 -3 491 -1 0 -146 -144 -321 -319z"/>
<path d="M5756 6219 c-363 -34 -662 -166 -886 -388 -218 -217 -330 -493 -330
-816 0 -208 35 -368 120 -540 182 -372 556 -614 1040 -674 109 -14 384 -14
508 0 332 36 667 173 875 358 l47 43 0 441 0 442 -393 -393 c-215 -215 -397
-392 -402 -392 -6 0 -201 191 -435 425 l-425 425 504 504 c277 277 499 506
495 509 -13 7 -156 35 -245 46 -116 16 -362 21 -473 10z"/>
<path d="M3424 6074 c-238 -502 -291 -1152 -143 -1738 155 -613 575 -1133
1170 -1445 192 -101 494 -204 688 -236 39 -6 42 -5 37 12 -7 21 -1685 3515
-1691 3522 -3 2 -30 -49 -61 -115z"/>
<path d="M2563 5163 c-18 -43 -73 -172 -123 -288 -51 -115 -111 -255 -135
-310 -23 -55 -59 -137 -78 -182 l-36 -83 415 0 c329 0 415 3 411 13 -3 6 -67
152 -142 322 -75 171 -165 375 -200 455 -35 79 -67 146 -71 147 -5 2 -23 -32
-41 -74z"/>
<path d="M9568 4723 l-428 -428 -388 388 c-213 213 -390 387 -395 387 -4 0 -8
-557 -9 -1237 l-3 -1238 -607 -3 -608 -2 0 150 c0 82 -2 150 -4 150 -2 0 -32
-13 -67 -29 -270 -122 -649 -218 -991 -251 -164 -16 -625 -7 -753 14 -118 20
-118 20 -112 -4 5 -20 2 -20 -721 -18 l-726 3 -116 262 -115 263 -921 0 -922
0 -117 -265 -117 -265 -724 0 -724 0 0 -1300 0 -1300 5000 0 5000 0 0 2575 c0
1416 -1 2575 -3 2575 -1 0 -194 -192 -429 -427z"/>
</g>
</svg>
